<svg viewBox="-939.5 -489 1879 978" width="1879" height="978" style="background-color: rgb(255, 255, 255);" xmlns="http://www.w3.org/2000/svg"><path d="M249.17508413566756,412.1541417333675L240.21391964212023,410.8990786127134M240.21391964212023,-347.36589302290434L240.21391964212023,410.8990786127134M240.21391964212023,410.8990786127134L236.77676065829385,414.1712074629902M249.17508413566756,-346.11082990225026L249.17508413566756,412.1541417333675M249.17508413566756,412.1541417333675L245.73792515184118,415.4262705836443" style="fill:none;stroke:rgb(0,0,0);stroke-width:1;stroke-linecap:round"></path><path d="M236.7767606582939,414.1712074629902L240.21391964212023,410.8990786127134L249.1750841356675,412.1541417333675zM245.73792515184118,415.4262705836443L236.7767606582939,414.1712074629902L249.1750841356675,412.1541417333675z" style="fill:rgb(238,238,238); fill-opacity: 0.4"></path><path d="M236.77676065829385,-344.0937641726276L236.77676065829385,414.1712074629902M236.77676065829385,414.1712074629902L245.73792515184118,415.4262705836443M245.73792515184118,-342.8387010519735L245.73792515184118,415.4262705836443M31.637479983949575,116.29399705931536L22.67631549040227,115.03893393866126M22.67631549040227,-112.44055755202405L22.67631549040227,115.03893393866126M22.67631549040227,115.03893393866126L19.23915650657591,118.31106278893802M79.97916979544246,160.9777799970042L71.01800530189517,159.72271687635015M71.01800530189517,-143.58327177789695L71.01800530189517,159.72271687635015M71.01800530189517,159.72271687635015L67.58084631806881,162.9948457266269M31.637479983949575,-111.18549443136995L31.637479983949575,116.29399705931536M31.637479983949575,116.29399705931536L28.20032100012321,119.56612590959212" style="fill:none;stroke:rgb(0,0,0);stroke-width:1;stroke-linecap:round"></path><path d="M19.23915650657591,118.31106278893802L22.676315490402267,115.03893393866126L31.637479983949575,116.29399705931536z" style="fill:rgb(238,238,238); fill-opacity: 0.4"></path><path d="M79.97916979544246,-142.32820865724287L79.97916979544246,160.9777799970042M79.97916979544246,160.9777799970042L76.54201081161611,164.24990884728098" style="fill:none;stroke:rgb(0,0,0);stroke-width:1;stroke-linecap:round"></path><path d="M67.58084631806881,162.9948457266269L71.01800530189517,159.72271687635015L79.97916979544246,160.97777999700423zM28.200321000123214,119.56612590959212L19.23915650657591,118.31106278893802L31.637479983949575,116.29399705931536z" style="fill:rgb(238,238,238); fill-opacity: 0.4"></path><path d="M19.23915650657591,-109.1684287017473L19.23915650657591,118.31106278893802M19.23915650657591,118.31106278893802L28.20032100012321,119.56612590959212" style="fill:none;stroke:rgb(0,0,0);stroke-width:1;stroke-linecap:round"></path><path d="M76.54201081161611,164.249908847281L67.58084631806881,162.9948457266269L79.97916979544246,160.97777999700423z" style="fill:rgb(238,238,238); fill-opacity: 0.4"></path><path d="M67.58084631806881,-140.31114292762018L67.58084631806881,162.9948457266269M67.58084631806881,162.9948457266269L76.54201081161611,164.24990884728098M28.20032100012321,-107.9133655810932L28.20032100012321,119.56612590959212M76.54201081161611,-139.05607980696612L76.54201081161611,164.24990884728098M200.8333943241747,253.73061305033596L191.8722298306274,252.4755499296819M191.8722298306274,-202.48343305168873L191.8722298306274,252.4755499296819M191.8722298306274,252.4755499296819L188.43507084680104,255.74767877995865M200.8333943241747,-201.22836993103465L200.8333943241747,253.73061305033596M200.8333943241747,253.73061305033596L197.39623534034834,257.0027419006127" style="fill:none;stroke:rgb(0,0,0);stroke-width:1;stroke-linecap:round"></path><path d="M188.435070846801,255.74767877995865L191.8722298306274,252.4755499296819L200.8333943241747,253.73061305033596zM197.3962353403483,257.0027419006127L188.435070846801,255.74767877995865L200.8333943241747,253.73061305033596z" style="fill:rgb(238,238,238); fill-opacity: 0.4"></path><path d="M55.80832488969602,81.76601565548847L46.847160396148716,80.51095253483437M46.847160396148716,-71.14204179228916L46.847160396148716,80.51095253483437M46.847160396148716,80.51095253483437L43.41000141232235,83.78308138511113M188.43507084680104,-199.211304201412L188.43507084680104,255.74767877995865M188.43507084680104,255.74767877995865L197.39623534034834,257.0027419006127M225.00423922992113,257.11588022828994L216.04307473637382,255.86081710763585M216.04307473637382,-199.09816587373476L216.04307473637382,255.86081710763585M216.04307473637382,255.86081710763585L212.60591575254747,259.1329459579126M104.15001470118891,126.44979859317733L95.18885020764161,125.19473547252323M95.18885020764161,-102.28475601816207L95.18885020764161,125.19473547252323M95.18885020764161,125.19473547252323L91.75169122381526,128.4668643228M55.80832488969602,-69.88697867163506L55.80832488969602,81.76601565548847M55.80832488969602,81.76601565548847L52.37116590586965,85.03814450576523M197.39623534034834,-197.9562410807579L197.39623534034834,257.0027419006127" style="fill:none;stroke:rgb(0,0,0);stroke-width:1;stroke-linecap:round"></path><path d="M43.41000141232236,83.78308138511113L46.847160396148716,80.51095253483437L55.80832488969601,81.76601565548847z" style="fill:rgb(238,238,238); fill-opacity: 0.4"></path><path d="M225.00423922992113,-197.8431027530807L225.00423922992113,257.11588022828994M225.00423922992113,257.11588022828994L221.56708024609478,260.3880090785667" style="fill:none;stroke:rgb(0,0,0);stroke-width:1;stroke-linecap:round"></path><path d="M212.60591575254747,259.1329459579126L216.04307473637385,255.86081710763585L225.00423922992115,257.11588022829z" style="fill:rgb(238,238,238); fill-opacity: 0.4"></path><path d="M152.4917045126818,171.1335815308662L143.53054001913452,169.87851841021214M143.53054001913452,-133.42747024403496L143.53054001913452,169.87851841021214M143.53054001913452,169.87851841021214L140.09338103530814,173.15064726048888M104.15001470118891,-101.02969289750797L104.15001470118891,126.44979859317733M104.15001470118891,126.44979859317733L100.71285571736254,129.7219274434541" style="fill:none;stroke:rgb(0,0,0);stroke-width:1;stroke-linecap:round"></path><path d="M91.75169122381526,128.4668643228L95.18885020764161,125.19473547252323L104.15001470118891,126.44979859317733zM31.637479983949575,116.29399705931536L22.676315490402267,115.03893393866126L22.676315490402267,-112.44055755202405zM52.37116590586965,85.03814450576523L43.41000141232236,83.78308138511113L55.80832488969601,81.76601565548847z" style="fill:rgb(238,238,238); fill-opacity: 0.4"></path><path d="M152.4917045126818,-132.17240712338088L152.4917045126818,171.1335815308662M152.4917045126818,171.1335815308662L149.05454552885544,174.40571038114297M43.41000141232235,-67.86991294201242L43.41000141232235,83.78308138511113M43.41000141232235,83.78308138511113L52.37116590586965,85.03814450576523" style="fill:none;stroke:rgb(0,0,0);stroke-width:1;stroke-linecap:round"></path><path d="M221.56708024609478,260.38800907856677L212.60591575254747,259.1329459579126L225.00423922992115,257.11588022829zM140.0933810353081,173.15064726048885L143.53054001913452,169.8785184102121L152.4917045126818,171.13358153086622z" style="fill:rgb(238,238,238); fill-opacity: 0.4"></path><path d="M212.60591575254747,-195.826037023458L212.60591575254747,259.1329459579126M212.60591575254747,259.1329459579126L221.56708024609478,260.3880090785667" style="fill:none;stroke:rgb(0,0,0);stroke-width:1;stroke-linecap:round"></path><path d="M100.71285571736254,129.7219274434541L91.75169122381526,128.4668643228L104.15001470118891,126.44979859317733z" style="fill:rgb(238,238,238); fill-opacity: 0.4"></path><path d="M91.75169122381526,-99.01262716788533L91.75169122381526,128.4668643228M91.75169122381526,128.4668643228L100.71285571736254,129.7219274434541M128.32085960693536,129.83506577113133L119.35969511338806,128.58000265047724M119.35969511338806,-98.89948884020808L119.35969511338806,128.58000265047724M119.35969511338806,128.58000265047724L115.92253612956169,131.85213150075398M1.4133195868031072,10.411906881102793L-6.191520450294851,9.346804876122503M-6.191520450294851,-11.39966219286428L-6.191520450294851,9.346804876122503M-6.191520450294851,9.346804876122503L-6.4832129448684706,9.624492184563794M52.37116590586965,-66.61484982135832L52.37116590586965,85.03814450576523" style="fill:none;stroke:rgb(0,0,0);stroke-width:1;stroke-linecap:round"></path><path d="M22.676315490402267,115.03893393866126L19.23915650657591,118.31106278893802L19.23915650657591,-109.1684287017473z" style="fill:rgb(238,238,238); fill-opacity: 0.4"></path><path d="M-6.4832129448684706,-11.121974884422992L-6.4832129448684706,9.624492184563794M-6.4832129448684706,9.624492184563794L1.121627092229487,10.689594189544081" style="fill:none;stroke:rgb(0,0,0);stroke-width:1;stroke-linecap:round"></path><path d="M28.200321000123214,119.56612590959212L31.637479983949575,116.29399705931536L31.637479983949575,-111.18549443136995zM-6.483212944868471,9.624492184563794L-6.191520450294851,9.346804876122503L1.4133195868031072,10.411906881102793z" style="fill:rgb(238,238,238); fill-opacity: 0.4"></path><path d="M221.56708024609478,-194.57097390280393L221.56708024609478,260.3880090785667" style="fill:none;stroke:rgb(0,0,0);stroke-width:1;stroke-linecap:round"></path><path d="M149.0545455288554,174.405710381143L140.0933810353081,173.15064726048885L152.4917045126818,171.13358153086622z" style="fill:rgb(238,238,238); fill-opacity: 0.4"></path><path d="M140.09338103530814,-130.1553413937582L140.09338103530814,173.15064726048888M140.09338103530814,173.15064726048888L149.05454552885544,174.40571038114297" style="fill:none;stroke:rgb(0,0,0);stroke-width:1;stroke-linecap:round"></path><path d="M1.121627092229487,10.689594189544081L-6.483212944868471,9.624492184563794L1.4133195868031072,10.411906881102793z" style="fill:rgb(238,238,238); fill-opacity: 0.4"></path><path d="M1.4133195868031072,-10.334560187883993L1.4133195868031072,10.411906881102793M1.4133195868031072,10.411906881102793L1.121627092229487,10.689594189544081M100.71285571736254,-97.75756404723123L100.71285571736254,129.7219274434541M128.32085960693536,-97.64442571955398L128.32085960693536,129.83506577113133M128.32085960693536,129.83506577113133L124.883700623109,133.1071946214081" style="fill:none;stroke:rgb(0,0,0);stroke-width:1;stroke-linecap:round"></path><path d="M-6.191520450294851,9.346804876122503L-6.483212944868471,9.624492184563794L-6.483212944868471,-11.121974884422992z" style="fill:rgb(238,238,238); fill-opacity: 0.4"></path><path d="M1.121627092229487,-10.056872879442702L1.121627092229487,10.689594189544081" style="fill:none;stroke:rgb(0,0,0);stroke-width:1;stroke-linecap:round"></path><path d="M1.4133195868031072,10.411906881102793L-6.191520450294851,9.346804876122503L-6.191520450294851,-11.39966219286428zM115.92253612956168,131.85213150075398L119.35969511338806,128.58000265047724L128.3208596069354,129.83506577113133z" style="fill:rgb(238,238,238); fill-opacity: 0.4"></path><path d="M149.05454552885544,-128.90027827310413L149.05454552885544,174.40571038114297" style="fill:none;stroke:rgb(0,0,0);stroke-width:1;stroke-linecap:round"></path><path d="M-6.483212944868471,9.624492184563794L1.121627092229487,10.689594189544081L1.121627092229487,-10.056872879442702zM19.23915650657591,118.31106278893802L28.200321000123214,119.56612590959212L28.200321000123214,-107.9133655810932zM-6.191520450294851,-11.39966219286428L-6.191520450294851,9.346804876122503L-6.483212944868471,-11.121974884422992zM1.121627092229487,10.689594189544081L1.4133195868031072,10.411906881102793L1.4133195868031072,-10.334560187883993zM-6.483212944868471,-11.121974884422992L-6.483212944868471,9.624492184563794L1.121627092229487,-10.056872879442702zM1.4133195868031072,-10.334560187883993L1.4133195868031072,10.411906881102793L-6.191520450294851,-11.39966219286428zM124.883700623109,133.1071946214081L115.92253612956168,131.85213150075398L128.3208596069354,129.83506577113133z" style="fill:rgb(238,238,238); fill-opacity: 0.4"></path><path d="M1.4133195868031072,-10.334560187883993L-6.191520450294851,-11.39966219286428M-6.191520450294851,-11.39966219286428L-6.4832129448684706,-11.121974884422992M115.92253612956169,-95.62735998993132L115.92253612956169,131.85213150075398M115.92253612956169,131.85213150075398L124.883700623109,133.1071946214081" style="fill:none;stroke:rgb(0,0,0);stroke-width:1;stroke-linecap:round"></path><path d="M79.97916979544246,160.97777999700423L71.01800530189517,159.72271687635015L71.01800530189517,-143.58327177789695zM1.121627092229487,-10.056872879442702L1.121627092229487,10.689594189544081L1.4133195868031072,-10.334560187883993z" style="fill:rgb(238,238,238); fill-opacity: 0.4"></path><path d="M-6.4832129448684706,-11.121974884422992L1.121627092229487,-10.056872879442702M6.508539759001357,0.9115587853247815L15.127358467712375,2.118674390969107M321.68761885290684,308.57019752188677L312.7264543593595,307.31513440123274M312.7264543593595,-223.4703457436997L312.7264543593595,307.31513440123274M312.7264543593595,307.31513440123274L309.28929537553313,310.58726325150946" style="fill:none;stroke:rgb(0,0,0);stroke-width:1;stroke-linecap:round"></path><path d="M-6.483212944868471,-11.121974884422992L1.121627092229487,-10.056872879442702L-6.191520450294851,-11.39966219286428zM55.80832488969601,81.76601565548847L46.847160396148716,80.51095253483437L46.847160396148716,-71.14204179228916zM1.121627092229487,-10.056872879442702L1.4133195868031072,-10.334560187883993L-6.191520450294851,-11.39966219286428z" style="fill:rgb(238,238,238); fill-opacity: 0.4"></path><path d="M1.4133195868031072,-10.334560187883993L1.121627092229487,-10.056872879442702M124.883700623109,-94.37229686927722L124.883700623109,133.1071946214081M321.68761885290684,-222.21528262304562L321.68761885290684,308.57019752188677M321.68761885290684,308.57019752188677L318.25045986908043,311.84232637216354" style="fill:none;stroke:rgb(0,0,0);stroke-width:1;stroke-linecap:round"></path><path d="M14.433818331120472,3.3647071396433534L15.127358467712378,4.014336820058151L20.19725182577768,2.828742394289298z" style="fill:rgb(0,0,0)"></path><path d="M71.01800530189517,159.72271687635015L67.58084631806881,162.9948457266269L67.58084631806881,-140.31114292762018z" style="fill:rgb(238,238,238); fill-opacity: 0.4"></path><path d="M15.55598982794346,0.17699999881776987L14.69872710748129,0.9931025105404938L20.19725182577768,2.828742394289298z" style="fill:rgb(0,0,0)"></path><path d="M309.2892953755332,310.58726325150946L312.7264543593595,307.31513440123274L321.68761885290684,308.57019752188677zM76.54201081161611,164.249908847281L79.97916979544246,160.97777999700423L79.97916979544246,-142.32820865724284z" style="fill:rgb(238,238,238); fill-opacity: 0.4"></path><path d="M14.69872710748129,0.9931025105404938L14.433818331120472,3.3647071396433534L20.19725182577768,2.828742394289298z" style="fill:rgb(0,0,0)"></path><path d="M46.847160396148716,80.51095253483437L43.41000141232236,83.78308138511113L43.41000141232236,-67.86991294201242zM52.37116590586965,85.03814450576523L55.80832488969601,81.76601565548847L55.80832488969601,-69.88697867163506zM318.2504598690805,311.84232637216354L309.2892953755332,310.58726325150946L321.68761885290684,308.57019752188677z" style="fill:rgb(238,238,238); fill-opacity: 0.4"></path><path d="M176.66254941842823,136.60560012703934L167.70138492488095,135.35053700638522M167.70138492488095,-92.12895448430008L167.70138492488095,135.35053700638522M167.70138492488095,135.35053700638522L164.26422594105458,138.622665856662M30.679384664747797,4.296825963278773L39.29820337345882,5.503941568923099M309.28929537553313,-220.19821689342297L309.28929537553313,310.58726325150946M309.28929537553313,310.58726325150946L318.25045986908043,311.84232637216354" style="fill:none;stroke:rgb(0,0,0);stroke-width:1;stroke-linecap:round"></path><path d="M67.58084631806881,162.9948457266269L76.54201081161611,164.249908847281L76.54201081161611,-139.0560798069661z" style="fill:rgb(238,238,238); fill-opacity: 0.4"></path><path d="M345.8584637586533,311.95546469984083L336.89729926510597,310.70040157918675M336.89729926510597,-220.0850785657457L336.89729926510597,310.70040157918675M336.89729926510597,310.70040157918675L333.46014028127956,313.9725304294635" style="fill:none;stroke:rgb(0,0,0);stroke-width:1;stroke-linecap:round"></path><path d="M43.41000141232236,83.78308138511113L52.37116590586965,85.03814450576523L52.37116590586965,-66.61484982135832z" style="fill:rgb(238,238,238); fill-opacity: 0.4"></path><path d="M176.66254941842823,-90.87389136364598L176.66254941842823,136.60560012703934M176.66254941842823,136.60560012703934L173.22539043460188,139.87772897731608M318.25045986908043,-218.94315377276888L318.25045986908043,311.84232637216354" style="fill:none;stroke:rgb(0,0,0);stroke-width:1;stroke-linecap:round"></path><path d="M164.26422594105458,138.622665856662L167.70138492488095,135.35053700638522L176.66254941842826,136.60560012703934z" style="fill:rgb(238,238,238); fill-opacity: 0.4"></path><path d="M345.8584637586533,-218.83001544509165L345.8584637586533,311.95546469984083M345.8584637586533,311.95546469984083L342.4213047748269,315.22759355011755" style="fill:none;stroke:rgb(0,0,0);stroke-width:1;stroke-linecap:round"></path><path d="M38.60466323686692,6.749974317597346L39.29820337345882,7.399603998012143L44.36809673152412,6.21400957224329zM39.726834733689905,3.562267176771761L38.869572013227724,4.378369688494485L44.36809673152412,6.21400957224329z" style="fill:rgb(0,0,0)"></path><path d="M333.46014028127956,313.97253042946346L336.8972992651059,310.7004015791867L345.8584637586532,311.95546469984083zM104.15001470118891,126.44979859317733L95.18885020764161,125.19473547252323L95.18885020764161,-102.28475601816206z" style="fill:rgb(238,238,238); fill-opacity: 0.4"></path><path d="M38.869572013227724,4.378369688494485L38.60466323686692,6.749974317597346L44.36809673152412,6.21400957224329z" style="fill:rgb(0,0,0)"></path><path d="M173.22539043460188,139.87772897731608L164.26422594105458,138.622665856662L176.66254941842826,136.60560012703934z" style="fill:rgb(238,238,238); fill-opacity: 0.4"></path><path d="M164.26422594105458,-88.85682563402334L164.26422594105458,138.622665856662M164.26422594105458,138.622665856662L173.22539043460188,139.87772897731608" style="fill:none;stroke:rgb(0,0,0);stroke-width:1;stroke-linecap:round"></path><path d="M342.4213047748269,315.22759355011755L333.46014028127956,313.97253042946346L345.8584637586532,311.95546469984083z" style="fill:rgb(238,238,238); fill-opacity: 0.4"></path><path d="M54.85022957049425,7.682093141232764L63.46904827920527,8.88920874687709M333.46014028127956,-216.81294971546896L333.46014028127956,313.9725304294635M333.46014028127956,313.9725304294635L342.4213047748269,315.22759355011755" style="fill:none;stroke:rgb(0,0,0);stroke-width:1;stroke-linecap:round"></path><path d="M95.18885020764161,125.19473547252323L91.75169122381526,128.4668643228L91.75169122381526,-99.01262716788531z" style="fill:rgb(238,238,238); fill-opacity: 0.4"></path><path d="M370.0293086643997,315.3407318777948L361.06814417085235,314.0856687571407M361.06814417085235,-216.69981138779173L361.06814417085235,314.0856687571407M361.06814417085235,314.0856687571407L357.630985187026,317.35779760741747" style="fill:none;stroke:rgb(0,0,0);stroke-width:1;stroke-linecap:round"></path><path d="M100.71285571736254,129.7219274434541L104.15001470118891,126.44979859317733L104.15001470118891,-101.02969289750797zM31.637479983949575,-111.18549443136995L31.637479983949575,116.29399705931536L22.676315490402267,-112.44055755202405zM22.676315490402267,-112.44055755202405L22.676315490402267,115.03893393866126L19.23915650657591,-109.1684287017473z" style="fill:rgb(238,238,238); fill-opacity: 0.4"></path><path d="M173.22539043460188,-87.60176251336924L173.22539043460188,139.87772897731608M342.4213047748269,-215.55788659481487L342.4213047748269,315.22759355011755M370.0293086643997,-215.44474826713764L370.0293086643997,315.3407318777948M370.0293086643997,315.3407318777948L366.5921496805733,318.61286072807155" style="fill:none;stroke:rgb(0,0,0);stroke-width:1;stroke-linecap:round"></path><path d="M62.77550814261337,10.135241495551337L63.46904827920527,10.784871175966133L68.53894163727057,9.599276750197282zM63.897679639436355,6.947534354725755L63.040416918974174,7.763636866448477L68.53894163727057,9.599276750197282z" style="fill:rgb(0,0,0)"></path><path d="M357.63098518702606,317.35779760741747L361.06814417085235,314.0856687571407L370.02930866439965,315.3407318777948zM55.80832488969601,-69.88697867163506L55.80832488969601,81.76601565548847L46.847160396148716,-71.14204179228916zM128.3208596069354,129.83506577113133L119.35969511338806,128.58000265047724L119.35969511338806,-98.89948884020808z" style="fill:rgb(238,238,238); fill-opacity: 0.4"></path><path d="M63.040416918974174,7.763636866448477L62.77550814261337,10.135241495551337L68.53894163727057,9.599276750197282z" style="fill:rgb(0,0,0)"></path><path d="M46.847160396148716,-71.14204179228916L46.847160396148716,80.51095253483437L43.41000141232236,-67.86991294201242zM91.75169122381526,128.4668643228L100.71285571736254,129.7219274434541L100.71285571736254,-97.75756404723123zM28.200321000123214,-107.9133655810932L28.200321000123214,119.56612590959212L31.637479983949575,-111.18549443136995zM19.23915650657591,-109.1684287017473L19.23915650657591,118.31106278893802L28.200321000123214,-107.9133655810932zM152.4917045126818,171.13358153086622L143.53054001913452,169.8785184102121L143.53054001913452,-133.427470244035zM366.5921496805733,318.61286072807155L357.63098518702606,317.35779760741747L370.02930866439965,315.3407318777948z" style="fill:rgb(238,238,238); fill-opacity: 0.4"></path><path d="M79.0210744762407,11.067360319186758L87.63989318495172,12.274475924831084M357.630985187026,-213.42768253751495L357.630985187026,317.35779760741747M357.630985187026,317.35779760741747L366.5921496805733,318.61286072807155" style="fill:none;stroke:rgb(0,0,0);stroke-width:1;stroke-linecap:round"></path><path d="M119.35969511338806,128.58000265047724L115.92253612956168,131.85213150075398L115.92253612956168,-95.62735998993132zM124.883700623109,133.1071946214081L128.3208596069354,129.83506577113133L128.3208596069354,-97.64442571955398z" style="fill:rgb(238,238,238); fill-opacity: 0.4"></path><path d="M273.34592904141397,188.05991742063617L264.38476454786667,186.80485429998208M264.38476454786667,-116.501134354265L264.38476454786667,186.80485429998208M264.38476454786667,186.80485429998208L260.94760556404026,190.07698315025883" style="fill:none;stroke:rgb(0,0,0);stroke-width:1;stroke-linecap:round"></path><path d="M52.37116590586965,-66.61484982135832L52.37116590586965,85.03814450576523L55.80832488969601,-69.88697867163506zM43.41000141232236,-67.86991294201242L43.41000141232236,83.78308138511113L52.37116590586965,-66.61484982135832z" style="fill:rgb(238,238,238); fill-opacity: 0.4"></path><path d="M366.5921496805733,-212.1726194168609L366.5921496805733,318.61286072807155" style="fill:none;stroke:rgb(0,0,0);stroke-width:1;stroke-linecap:round"></path><path d="M86.94635304835981,13.520508673505331L87.6398931849517,14.170138353920127L92.70978654301702,12.984543928151274z" style="fill:rgb(0,0,0)"></path><path d="M143.53054001913452,169.8785184102121L140.0933810353081,173.15064726048885L140.0933810353081,-130.15534139375822z" style="fill:rgb(238,238,238); fill-opacity: 0.4"></path><path d="M88.0685245451828,10.332801532679746L87.21126182472062,11.14890404440247L92.70978654301702,12.984543928151274z" style="fill:rgb(0,0,0)"></path><path d="M249.1750841356675,412.1541417333675L240.21391964212023,410.8990786127134L240.21391964212023,-347.36589302290434zM149.0545455288554,174.405710381143L152.4917045126818,171.13358153086622L152.4917045126818,-132.17240712338085z" style="fill:rgb(238,238,238); fill-opacity: 0.4"></path><path d="M87.21126182472062,11.14890404440247L86.94635304835981,13.520508673505331L92.70978654301702,12.984543928151274z" style="fill:rgb(0,0,0)"></path><path d="M273.34592904141397,-115.24607123361093L273.34592904141397,188.05991742063617M273.34592904141397,188.05991742063617L269.90877005758756,191.3320462709129" style="fill:none;stroke:rgb(0,0,0);stroke-width:1;stroke-linecap:round"></path><path d="M115.92253612956168,131.85213150075398L124.883700623109,133.1071946214081L124.883700623109,-94.37229686927722zM260.9476055640403,190.07698315025883L264.38476454786667,186.80485429998205L273.34592904141397,188.0599174206362zM200.8333943241747,253.73061305033596L191.8722298306274,252.4755499296819L191.8722298306274,-202.48343305168876z" style="fill:rgb(238,238,238); fill-opacity: 0.4"></path><path d="M103.19191938198715,14.452627497140751L111.81073809069818,15.659743102785077" style="fill:none;stroke:rgb(0,0,0);stroke-width:1;stroke-linecap:round"></path><path d="M240.21391964212023,410.8990786127134L236.7767606582939,414.1712074629902L236.7767606582939,-344.0937641726276zM140.0933810353081,173.15064726048885L149.0545455288554,174.405710381143L149.0545455288554,-128.9002782731041zM245.73792515184118,415.4262705836443L249.1750841356675,412.1541417333675L249.1750841356675,-346.11082990225026zM269.9087700575876,191.33204627091294L260.9476055640403,190.07698315025883L273.34592904141397,188.0599174206362z" style="fill:rgb(238,238,238); fill-opacity: 0.4"></path><path d="M260.94760556404026,-113.22900550398825L260.94760556404026,190.07698315025883M260.94760556404026,190.07698315025883L269.90877005758756,191.3320462709129" style="fill:none;stroke:rgb(0,0,0);stroke-width:1;stroke-linecap:round"></path><path d="M191.8722298306274,252.4755499296819L188.435070846801,255.74767877995865L188.435070846801,-199.21130420141202zM197.3962353403483,257.0027419006127L200.8333943241747,253.73061305033596L200.8333943241747,-201.22836993103465z" style="fill:rgb(238,238,238); fill-opacity: 0.4"></path><path d="M111.11719795410627,16.905775851459325L111.81073809069818,17.555405531874126L116.88063144876347,16.369811106105267zM112.23936945092927,13.718068710633743L111.38210673046709,14.534171222356466L116.88063144876347,16.369811106105267z" style="fill:rgb(0,0,0)"></path><path d="M176.66254941842826,136.60560012703934L167.70138492488095,135.35053700638522L167.70138492488095,-92.12895448430008z" style="fill:rgb(238,238,238); fill-opacity: 0.4"></path><path d="M111.38210673046709,14.534171222356466L111.11719795410627,16.905775851459325L116.88063144876347,16.369811106105267z" style="fill:rgb(0,0,0)"></path><path d="M269.90877005758756,-111.97394238333418L269.90877005758756,191.3320462709129M55.80832488969602,-69.88697867163506L46.847160396148716,-71.14204179228916M46.847160396148716,-71.14204179228916L43.41000141232235,-67.86991294201242" style="fill:none;stroke:rgb(0,0,0);stroke-width:1;stroke-linecap:round"></path><path d="M236.7767606582939,414.1712074629902L245.73792515184118,415.4262705836443L245.73792515184118,-342.8387010519735zM79.97916979544246,-142.32820865724284L79.97916979544246,160.97777999700423L71.01800530189517,-143.58327177789695zM71.01800530189517,-143.58327177789695L71.01800530189517,159.72271687635015L67.58084631806881,-140.31114292762018zM225.00423922992115,257.11588022829L216.04307473637385,255.86081710763585L216.04307473637385,-199.09816587373476zM188.435070846801,255.74767877995865L197.3962353403483,257.0027419006127L197.3962353403483,-197.9562410807579z" style="fill:rgb(238,238,238); fill-opacity: 0.4"></path><path d="M55.80832488969602,-69.88697867163506L52.37116590586965,-66.61484982135832M127.3627642877336,17.837894675094745L135.98158299644462,19.04501028073907" style="fill:none;stroke:rgb(0,0,0);stroke-width:1;stroke-linecap:round"></path><path d="M167.70138492488095,135.35053700638522L164.26422594105458,138.622665856662L164.26422594105458,-88.85682563402334zM173.22539043460188,139.87772897731608L176.66254941842826,136.60560012703934L176.66254941842826,-90.87389136364598zM104.15001470118891,-101.02969289750797L104.15001470118891,126.44979859317733L95.18885020764161,-102.28475601816206zM52.37116590586965,-66.61484982135832L55.80832488969601,-69.88697867163506L46.847160396148716,-71.14204179228916zM95.18885020764161,-102.28475601816206L95.18885020764161,125.19473547252323L91.75169122381526,-99.01262716788531z" style="fill:rgb(238,238,238); fill-opacity: 0.4"></path><path d="M31.637479983949575,-111.18549443136995L22.67631549040227,-112.44055755202405M22.67631549040227,-112.44055755202405L19.23915650657591,-109.1684287017473" style="fill:none;stroke:rgb(0,0,0);stroke-width:1;stroke-linecap:round"></path><path d="M216.04307473637385,255.86081710763585L212.60591575254747,259.1329459579126L212.60591575254747,-195.826037023458zM43.41000141232236,-67.86991294201242L52.37116590586965,-66.61484982135832L46.847160396148716,-71.14204179228916zM221.56708024609478,260.38800907856677L225.00423922992115,257.11588022829L225.00423922992115,-197.84310275308067zM76.54201081161611,-139.0560798069661L76.54201081161611,164.249908847281L79.97916979544246,-142.32820865724284z" style="fill:rgb(238,238,238); fill-opacity: 0.4"></path><path d="M135.2880428598527,20.291043029413316L135.98158299644462,20.940672709828117L141.05147635450993,19.75507828405926zM136.41021435667568,17.103335888587736L135.55295163621352,17.919438400310458L141.05147635450993,19.75507828405926z" style="fill:rgb(0,0,0)"></path><path d="M67.58084631806881,-140.31114292762018L67.58084631806881,162.9948457266269L76.54201081161611,-139.0560798069661z" style="fill:rgb(238,238,238); fill-opacity: 0.4"></path><path d="M43.41000141232235,-67.86991294201242L52.37116590586965,-66.61484982135832" style="fill:none;stroke:rgb(0,0,0);stroke-width:1;stroke-linecap:round"></path><path d="M135.55295163621352,17.919438400310458L135.2880428598527,20.291043029413316L141.05147635450993,19.75507828405926z" style="fill:rgb(0,0,0)"></path><path d="M164.26422594105458,138.622665856662L173.22539043460188,139.87772897731608L173.22539043460188,-87.60176251336924z" style="fill:rgb(238,238,238); fill-opacity: 0.4"></path><path d="M31.637479983949575,-111.18549443136995L28.20032100012321,-107.9133655810932" style="fill:none;stroke:rgb(0,0,0);stroke-width:1;stroke-linecap:round"></path><path d="M100.71285571736254,-97.75756404723123L100.71285571736254,129.7219274434541L104.15001470118891,-101.02969289750797zM28.200321000123214,-107.9133655810932L31.637479983949575,-111.18549443136995L22.676315490402267,-112.44055755202405zM212.60591575254747,259.1329459579126L221.56708024609478,260.38800907856677L221.56708024609478,-194.5709739028039zM91.75169122381526,-99.01262716788531L91.75169122381526,128.4668643228L100.71285571736254,-97.75756404723123z" style="fill:rgb(238,238,238); fill-opacity: 0.4"></path><path d="M297.5167739471604,153.53193601680928L288.5556094536131,152.2768728961552M288.5556094536131,-75.20261859453014L288.5556094536131,152.2768728961552M288.5556094536131,152.2768728961552L285.1184504697867,155.54900174643194M151.53360919348003,21.223161853048737L160.15242790219105,22.430277458693062" style="fill:none;stroke:rgb(0,0,0);stroke-width:1;stroke-linecap:round"></path><path d="M19.23915650657591,-109.1684287017473L28.200321000123214,-107.9133655810932L22.676315490402267,-112.44055755202405zM128.3208596069354,-97.64442571955398L128.3208596069354,129.83506577113133L119.35969511338806,-98.89948884020808zM119.35969511338806,-98.89948884020808L119.35969511338806,128.58000265047724L115.92253612956168,-95.62735998993132z" style="fill:rgb(238,238,238); fill-opacity: 0.4"></path><path d="M19.23915650657591,-109.1684287017473L28.20032100012321,-107.9133655810932M297.5167739471604,-73.94755547387604L297.5167739471604,153.53193601680928M297.5167739471604,153.53193601680928L294.07961496333405,156.80406486708603" style="fill:none;stroke:rgb(0,0,0);stroke-width:1;stroke-linecap:round"></path><path d="M285.11845046978675,155.54900174643194L288.5556094536131,152.2768728961552L297.51677394716035,153.53193601680928z" style="fill:rgb(238,238,238); fill-opacity: 0.4"></path><path d="M159.45888776559914,23.676310207367308L160.15242790219108,24.325939887782106L165.22232126025636,23.140345462013254zM160.58105926242214,20.488603066541728L159.72379654195998,21.30470557826445L165.22232126025636,23.140345462013254zM159.72379654195998,21.30470557826445L159.45888776559914,23.676310207367308L165.22232126025636,23.140345462013254z" style="fill:rgb(0,0,0)"></path><path d="M294.07961496333405,156.80406486708603L285.11845046978675,155.54900174643194L297.51677394716035,153.53193601680928zM124.883700623109,-94.37229686927722L124.883700623109,133.1071946214081L128.3208596069354,-97.64442571955398z" style="fill:rgb(238,238,238); fill-opacity: 0.4"></path><path d="M285.1184504697867,-71.93048974425338L285.1184504697867,155.54900174643194M285.1184504697867,155.54900174643194L294.07961496333405,156.80406486708603" style="fill:none;stroke:rgb(0,0,0);stroke-width:1;stroke-linecap:round"></path><path d="M115.92253612956168,-95.62735998993132L115.92253612956168,131.85213150075398L124.883700623109,-94.37229686927722z" style="fill:rgb(238,238,238); fill-opacity: 0.4"></path><path d="M175.7044540992265,24.608429031002732L184.32327280793749,25.815544636647058M294.07961496333405,-70.67542662359928L294.07961496333405,156.80406486708603" style="fill:none;stroke:rgb(0,0,0);stroke-width:1;stroke-linecap:round"></path><path d="M183.6297326713456,27.0615773853213L184.3232728079375,27.7112070657361L189.39316616600283,26.525612639967246zM184.7519041681686,23.873870244495716L183.89464144770645,24.68997275621844L189.39316616600283,26.525612639967246zM183.89464144770645,24.68997275621844L183.6297326713456,27.0615773853213L189.39316616600283,26.525612639967246z" style="fill:rgb(0,0,0)"></path><path d="M152.4917045126818,-132.17240712338085L152.4917045126818,171.13358153086622L143.53054001913452,-133.427470244035zM143.53054001913452,-133.427470244035L143.53054001913452,169.8785184102121L140.0933810353081,-130.15534139375822zM273.34592904141397,188.0599174206362L264.38476454786667,186.80485429998205L264.38476454786667,-116.50113435426502z" style="fill:rgb(238,238,238); fill-opacity: 0.4"></path><path d="M199.87529900497293,27.99369620895672L208.49411771368395,29.200811814601046" style="fill:none;stroke:rgb(0,0,0);stroke-width:1;stroke-linecap:round"></path><path d="M176.66254941842826,-90.87389136364598L176.66254941842826,136.60560012703934L167.70138492488095,-92.12895448430008zM167.70138492488095,-92.12895448430008L167.70138492488095,135.35053700638522L164.26422594105458,-88.85682563402334zM321.68761885290684,308.57019752188677L312.7264543593595,307.31513440123274L312.7264543593595,-223.4703457436997z" style="fill:rgb(238,238,238); fill-opacity: 0.4"></path><path d="M104.15001470118891,-101.02969289750797L95.18885020764161,-102.28475601816207M95.18885020764161,-102.28475601816207L91.75169122381526,-99.01262716788533" style="fill:none;stroke:rgb(0,0,0);stroke-width:1;stroke-linecap:round"></path><path d="M149.0545455288554,-128.9002782731041L149.0545455288554,174.405710381143L152.4917045126818,-132.17240712338085z" style="fill:rgb(238,238,238); fill-opacity: 0.4"></path><path d="M207.800577577092,30.446844563275288L208.49411771368392,31.09647424369009L213.56401107174923,29.910879817921238z" style="fill:rgb(0,0,0)"></path><path d="M264.38476454786667,186.80485429998205L260.9476055640403,190.07698315025883L260.9476055640403,-113.22900550398826z" style="fill:rgb(238,238,238); fill-opacity: 0.4"></path><path d="M208.922749073915,27.259137422449705L208.06548635345285,28.07523993417243L213.56401107174923,29.910879817921238z" style="fill:rgb(0,0,0)"></path><path d="M140.0933810353081,-130.15534139375822L140.0933810353081,173.15064726048885L149.0545455288554,-128.9002782731041zM269.9087700575876,191.33204627091294L273.34592904141397,188.0599174206362L273.34592904141397,-115.24607123361092z" style="fill:rgb(238,238,238); fill-opacity: 0.4"></path><path d="M208.06548635345285,28.07523993417243L207.800577577092,30.446844563275288L213.56401107174923,29.910879817921238z" style="fill:rgb(0,0,0)"></path><path d="M104.15001470118891,-101.02969289750797L100.71285571736254,-97.75756404723123" style="fill:none;stroke:rgb(0,0,0);stroke-width:1;stroke-linecap:round"></path><path d="M312.7264543593595,307.31513440123274L309.2892953755332,310.58726325150946L309.2892953755332,-220.19821689342297zM318.2504598690805,311.84232637216354L321.68761885290684,308.57019752188677L321.68761885290684,-222.2152826230456zM173.22539043460188,-87.60176251336924L173.22539043460188,139.87772897731608L176.66254941842826,-90.87389136364598zM100.71285571736254,-97.75756404723123L104.15001470118891,-101.02969289750797L95.18885020764161,-102.28475601816206zM164.26422594105458,-88.85682563402334L164.26422594105458,138.622665856662L173.22539043460188,-87.60176251336924z" style="fill:rgb(238,238,238); fill-opacity: 0.4"></path><path d="M224.04614391071934,31.378963386910716L232.66496261943036,32.586078992555045M79.97916979544246,-142.32820865724287L71.01800530189517,-143.58327177789695M71.01800530189517,-143.58327177789695L67.58084631806881,-140.31114292762018" style="fill:none;stroke:rgb(0,0,0);stroke-width:1;stroke-linecap:round"></path><path d="M260.9476055640403,190.07698315025883L269.9087700575876,191.33204627091294L269.9087700575876,-111.97394238333416zM91.75169122381526,-99.01262716788531L100.71285571736254,-97.75756404723123L95.18885020764161,-102.28475601816206zM345.8584637586532,311.95546469984083L336.8972992651059,310.7004015791867L336.8972992651059,-220.0850785657457z" style="fill:rgb(238,238,238); fill-opacity: 0.4"></path><path d="M91.75169122381526,-99.01262716788533L100.71285571736254,-97.75756404723123M128.32085960693536,-97.64442571955398L119.35969511338806,-98.89948884020808M119.35969511338806,-98.89948884020808L115.92253612956169,-95.62735998993132" style="fill:none;stroke:rgb(0,0,0);stroke-width:1;stroke-linecap:round"></path><path d="M309.2892953755332,310.58726325150946L318.2504598690805,311.84232637216354L318.2504598690805,-218.94315377276885z" style="fill:rgb(238,238,238); fill-opacity: 0.4"></path><path d="M79.97916979544246,-142.32820865724287L76.54201081161611,-139.05607980696612" style="fill:none;stroke:rgb(0,0,0);stroke-width:1;stroke-linecap:round"></path><path d="M231.97142248283845,33.83211174122929L232.66496261943036,34.48174142164409L237.73485597749564,33.29614699587523zM233.09359397966145,30.644404600403707L232.2363312591993,31.46050711212643L237.73485597749564,33.29614699587523z" style="fill:rgb(0,0,0)"></path><path d="M297.51677394716035,153.53193601680928L288.5556094536131,152.2768728961552L288.5556094536131,-75.20261859453014z" style="fill:rgb(238,238,238); fill-opacity: 0.4"></path><path d="M232.2363312591993,31.46050711212643L231.97142248283845,33.83211174122929L237.73485597749564,33.29614699587523z" style="fill:rgb(0,0,0)"></path><path d="M76.54201081161611,-139.0560798069661L79.97916979544246,-142.32820865724284L71.01800530189517,-143.58327177789695z" style="fill:rgb(238,238,238); fill-opacity: 0.4"></path><path d="M128.32085960693536,-97.64442571955398L124.883700623109,-94.37229686927722" style="fill:none;stroke:rgb(0,0,0);stroke-width:1;stroke-linecap:round"></path><path d="M336.8972992651059,310.7004015791867L333.46014028127956,313.97253042946346L333.46014028127956,-216.81294971546896zM67.58084631806881,-140.31114292762018L76.54201081161611,-139.0560798069661L71.01800530189517,-143.58327177789695zM342.4213047748269,315.22759355011755L345.8584637586532,311.95546469984083L345.8584637586532,-218.83001544509162zM124.883700623109,-94.37229686927722L128.3208596069354,-97.64442571955398L119.35969511338806,-98.89948884020808z" style="fill:rgb(238,238,238); fill-opacity: 0.4"></path><path d="M394.2001535701461,167.07300472862525L385.2389890765988,165.81794160797114M385.2389890765988,-61.661549882714176L385.2389890765988,165.81794160797114M385.2389890765988,165.81794160797114L381.8018300927724,169.0900704582479M67.58084631806881,-140.31114292762018L76.54201081161611,-139.05607980696612M248.21698881646574,34.764230564864704L256.8358075251768,35.97134617050903" style="fill:none;stroke:rgb(0,0,0);stroke-width:1;stroke-linecap:round"></path><path d="M288.5556094536131,152.2768728961552L285.11845046978675,155.54900174643194L285.11845046978675,-71.93048974425338zM115.92253612956168,-95.62735998993132L124.883700623109,-94.37229686927722L119.35969511338806,-98.89948884020808zM294.07961496333405,156.80406486708603L297.51677394716035,153.53193601680928L297.51677394716035,-73.94755547387604zM370.02930866439965,315.3407318777948L361.06814417085235,314.0856687571407L361.06814417085235,-216.69981138779173z" style="fill:rgb(238,238,238); fill-opacity: 0.4"></path><path d="M115.92253612956169,-95.62735998993132L124.883700623109,-94.37229686927722" style="fill:none;stroke:rgb(0,0,0);stroke-width:1;stroke-linecap:round"></path><path d="M333.46014028127956,313.97253042946346L342.4213047748269,315.22759355011755L342.4213047748269,-215.55788659481485z" style="fill:rgb(238,238,238); fill-opacity: 0.4"></path><path d="M394.2001535701461,-60.406486762060084L394.2001535701461,167.07300472862525M394.2001535701461,167.07300472862525L390.7629945863197,170.345133578902" style="fill:none;stroke:rgb(0,0,0);stroke-width:1;stroke-linecap:round"></path><path d="M381.80183009277243,169.0900704582479L385.2389890765988,165.81794160797114L394.2001535701461,167.07300472862525z" style="fill:rgb(238,238,238); fill-opacity: 0.4"></path><path d="M256.1422673885848,37.21737891918328L256.83580752517673,37.86700859959807L261.90570088324205,36.681414173829225zM257.2644388854078,34.029671778357695L256.40717616494567,34.84577429008041L261.90570088324205,36.681414173829225zM256.40717616494567,34.84577429008041L256.1422673885848,37.21737891918328L261.90570088324205,36.681414173829225z" style="fill:rgb(0,0,0)"></path><path d="M285.11845046978675,155.54900174643194L294.07961496333405,156.80406486708603L294.07961496333405,-70.67542662359928zM361.06814417085235,314.0856687571407L357.63098518702606,317.35779760741747L357.63098518702606,-213.42768253751495zM366.5921496805733,318.61286072807155L370.02930866439965,315.3407318777948L370.02930866439965,-215.44474826713764zM200.8333943241747,-201.22836993103465L200.8333943241747,253.73061305033596L191.8722298306274,-202.48343305168876zM390.76299458631973,170.345133578902L381.80183009277243,169.0900704582479L394.2001535701461,167.07300472862525zM191.8722298306274,-202.48343305168876L191.8722298306274,252.4755499296819L188.435070846801,-199.21130420141202z" style="fill:rgb(238,238,238); fill-opacity: 0.4"></path><path d="M381.8018300927724,-58.389421032437426L381.8018300927724,169.0900704582479M381.8018300927724,169.0900704582479L390.7629945863197,170.345133578902M418.3709984758926,170.45827190657923L409.4098339823453,169.20320878592514M409.4098339823453,-58.276282704760185L409.4098339823453,169.20320878592514M409.4098339823453,169.20320878592514L405.97267499851887,172.47533763620189M272.3878337222122,38.149497742818696L281.00665243092317,39.35661334846302M390.7629945863197,-57.134357911783326L390.7629945863197,170.345133578902M176.66254941842823,-90.87389136364598L167.70138492488095,-92.12895448430008M167.70138492488095,-92.12895448430008L164.26422594105458,-88.85682563402334" style="fill:none;stroke:rgb(0,0,0);stroke-width:1;stroke-linecap:round"></path><path d="M357.63098518702606,317.35779760741747L366.5921496805733,318.61286072807155L366.5921496805733,-212.1726194168609z" style="fill:rgb(238,238,238); fill-opacity: 0.4"></path><path d="M418.3709984758926,-57.021219584106085L418.3709984758926,170.45827190657923M418.3709984758926,170.45827190657923L414.9338394920662,173.730400756856" style="fill:none;stroke:rgb(0,0,0);stroke-width:1;stroke-linecap:round"></path><path d="M405.97267499851887,172.47533763620189L409.4098339823452,169.20320878592514L418.3709984758925,170.45827190657923z" style="fill:rgb(238,238,238); fill-opacity: 0.4"></path><path d="M280.3131122943313,40.60264609713727L281.00665243092317,41.252275777552065L286.07654578898854,40.06668135178322zM281.4352837911543,37.41493895631169L280.5780210706921,38.231041468034405L286.07654578898854,40.06668135178322zM280.5780210706921,38.231041468034405L280.3131122943313,40.60264609713727L286.07654578898854,40.06668135178322z" style="fill:rgb(0,0,0)"></path><path d="M197.3962353403483,-197.9562410807579L197.3962353403483,257.0027419006127L200.8333943241747,-201.22836993103465zM188.435070846801,-199.21130420141202L188.435070846801,255.74767877995865L197.3962353403483,-197.9562410807579z" style="fill:rgb(238,238,238); fill-opacity: 0.4"></path><path d="M176.66254941842823,-90.87389136364598L173.22539043460188,-87.60176251336924" style="fill:none;stroke:rgb(0,0,0);stroke-width:1;stroke-linecap:round"></path><path d="M225.00423922992115,-197.84310275308067L225.00423922992115,257.11588022829L216.04307473637385,-199.09816587373476zM414.9338394920662,173.730400756856L405.97267499851887,172.47533763620189L418.3709984758925,170.45827190657923zM173.22539043460188,-87.60176251336924L176.66254941842826,-90.87389136364598L167.70138492488095,-92.12895448430008zM216.04307473637385,-199.09816587373476L216.04307473637385,255.86081710763585L212.60591575254747,-195.826037023458z" style="fill:rgb(238,238,238); fill-opacity: 0.4"></path><path d="M405.97267499851887,-55.004153854483434L405.97267499851887,172.47533763620189M405.97267499851887,172.47533763620189L414.9338394920662,173.730400756856M442.541843381639,173.8435390845332L433.58067888809165,172.58847596387915M433.58067888809165,-54.89101552680619L433.58067888809165,172.58847596387915M433.58067888809165,172.58847596387915L430.1435199042653,175.8606048141559M296.5586786279586,41.53476492077269L305.17749733666966,42.74188052641701M152.4917045126818,-132.17240712338088L143.53054001913452,-133.42747024403496M143.53054001913452,-133.42747024403496L140.09338103530814,-130.1553413937582" style="fill:none;stroke:rgb(0,0,0);stroke-width:1;stroke-linecap:round"></path><path d="M164.26422594105458,-88.85682563402334L173.22539043460188,-87.60176251336924L167.70138492488095,-92.12895448430008z" style="fill:rgb(238,238,238); fill-opacity: 0.4"></path><path d="M164.26422594105458,-88.85682563402334L173.22539043460188,-87.60176251336924M414.9338394920662,-53.749090733829334L414.9338394920662,173.730400756856M442.541843381639,-53.63595240615209L442.541843381639,173.8435390845332M442.541843381639,173.8435390845332L439.1046843978126,177.11566793480995M152.4917045126818,-132.17240712338088L149.05454552885544,-128.90027827310413" style="fill:none;stroke:rgb(0,0,0);stroke-width:1;stroke-linecap:round"></path><path d="M430.14351990426536,175.8606048141559L433.58067888809165,172.58847596387915L442.54184338163896,173.8435390845332z" style="fill:rgb(238,238,238); fill-opacity: 0.4"></path><path d="M304.48395720007767,43.98791327509126L305.1774973366696,44.637542955506056L310.2473906947349,43.4519485297372zM305.60612869690067,40.80020613426567L304.74886597643854,41.6163086459884L310.2473906947349,43.4519485297372zM304.74886597643854,41.6163086459884L304.48395720007767,43.98791327509126L310.2473906947349,43.4519485297372z" style="fill:rgb(0,0,0)"></path><path d="M221.56708024609478,-194.5709739028039L221.56708024609478,260.38800907856677L225.00423922992115,-197.84310275308067zM149.0545455288554,-128.9002782731041L152.4917045126818,-132.17240712338085L143.53054001913452,-133.427470244035zM212.60591575254747,-195.826037023458L212.60591575254747,259.1329459579126L221.56708024609478,-194.5709739028039zM273.34592904141397,-115.24607123361092L273.34592904141397,188.0599174206362L264.38476454786667,-116.50113435426502zM264.38476454786667,-116.50113435426502L264.38476454786667,186.80485429998205L260.9476055640403,-113.22900550398826zM140.0933810353081,-130.15534139375822L149.0545455288554,-128.9002782731041L143.53054001913452,-133.427470244035zM439.1046843978126,177.11566793480995L430.14351990426536,175.8606048141559L442.54184338163896,173.8435390845332z" style="fill:rgb(238,238,238); fill-opacity: 0.4"></path><path d="M430.1435199042653,-51.61888667652944L430.1435199042653,175.8606048141559M430.1435199042653,175.8606048141559L439.1046843978126,177.11566793480995M466.7126882873854,177.22880626248724L457.7515237938381,175.9737431418331M457.7515237938381,-51.5057483488522L457.7515237938381,175.9737431418331M457.7515237938381,175.9737431418331L454.3143648100117,179.24587199210987M140.09338103530814,-130.1553413937582L149.05454552885544,-128.90027827310413M320.729523533705,44.92003209872667L329.34834224241604,46.127147704371" style="fill:none;stroke:rgb(0,0,0);stroke-width:1;stroke-linecap:round"></path><path d="M297.51677394716035,-73.94755547387604L297.51677394716035,153.53193601680928L288.5556094536131,-75.20261859453014zM288.5556094536131,-75.20261859453014L288.5556094536131,152.2768728961552L285.11845046978675,-71.93048974425338z" style="fill:rgb(238,238,238); fill-opacity: 0.4"></path><path d="M439.1046843978126,-50.36382355587534L439.1046843978126,177.11566793480995M466.7126882873854,-50.2506852281981L466.7126882873854,177.22880626248724M466.7126882873854,177.22880626248724L463.27552930355904,180.50093511276398" style="fill:none;stroke:rgb(0,0,0);stroke-width:1;stroke-linecap:round"></path><path d="M454.31436481001174,179.24587199210987L457.7515237938381,175.9737431418331L466.7126882873854,177.22880626248724zM269.9087700575876,-111.97394238333416L269.9087700575876,191.33204627091294L273.34592904141397,-115.24607123361092z" style="fill:rgb(238,238,238); fill-opacity: 0.4"></path><path d="M328.65480210582416,47.37318045304525L329.34834224241604,48.02281013346004L334.41823560048135,46.83721570769119zM329.77697360264716,44.18547331221966L328.919710882185,45.00157582394239L334.41823560048135,46.83721570769119z" style="fill:rgb(0,0,0)"></path><path d="M260.9476055640403,-113.22900550398826L260.9476055640403,190.07698315025883L269.9087700575876,-111.97394238333416zM394.2001535701461,167.07300472862525L385.2389890765988,165.81794160797114L385.2389890765988,-61.661549882714176z" style="fill:rgb(238,238,238); fill-opacity: 0.4"></path><path d="M328.919710882185,45.00157582394239L328.65480210582416,47.37318045304525L334.41823560048135,46.83721570769119z" style="fill:rgb(0,0,0)"></path><path d="M463.2755293035591,180.50093511276398L454.31436481001174,179.24587199210987L466.7126882873854,177.22880626248724zM294.07961496333405,-70.67542662359928L294.07961496333405,156.80406486708603L297.51677394716035,-73.94755547387604z" style="fill:rgb(238,238,238); fill-opacity: 0.4"></path><path d="M454.3143648100117,-48.23361949857544L454.3143648100117,179.24587199210987M454.3143648100117,179.24587199210987L463.27552930355904,180.50093511276398" style="fill:none;stroke:rgb(0,0,0);stroke-width:1;stroke-linecap:round"></path><path d="M285.11845046978675,-71.93048974425338L285.11845046978675,155.54900174643194L294.07961496333405,-70.67542662359928z" style="fill:rgb(238,238,238); fill-opacity: 0.4"></path><path d="M490.8835331931319,180.6140734404412L481.92236869958447,179.3590103197871M481.92236869958447,-48.120481170898216L481.92236869958447,179.3590103197871M481.92236869958447,179.3590103197871L478.4852097157582,182.63113917006385M344.9003684394515,48.305299276680664L353.51918714816253,49.51241488232499" style="fill:none;stroke:rgb(0,0,0);stroke-width:1;stroke-linecap:round"></path><path d="M385.2389890765988,165.81794160797114L381.80183009277243,169.0900704582479L381.80183009277243,-58.389421032437426zM390.76299458631973,170.345133578902L394.2001535701461,167.07300472862525L394.2001535701461,-60.40648676206008z" style="fill:rgb(238,238,238); fill-opacity: 0.4"></path><path d="M463.27552930355904,-46.97855637792134L463.27552930355904,180.50093511276398M490.8835331931319,-46.865418050244116L490.8835331931319,180.6140734404412M490.8835331931319,180.6140734404412L487.44637420930553,183.88620229071796" style="fill:none;stroke:rgb(0,0,0);stroke-width:1;stroke-linecap:round"></path><path d="M478.4852097157582,182.63113917006385L481.9223686995846,179.3590103197871L490.883533193132,180.6140734404412z" style="fill:rgb(238,238,238); fill-opacity: 0.4"></path><path d="M352.82564701157054,50.758447630999235L353.5191871481625,51.40807731141403L358.5890805062278,50.222482885645185zM353.94781850839354,47.570740490173655L353.0905557879314,48.38684300189637L358.5890805062278,50.222482885645185z" style="fill:rgb(0,0,0)"></path><path d="M418.3709984758925,170.45827190657923L409.4098339823452,169.20320878592514L409.4098339823452,-58.276282704760185z" style="fill:rgb(238,238,238); fill-opacity: 0.4"></path><path d="M353.0905557879314,48.38684300189637L352.82564701157054,50.758447630999235L358.5890805062278,50.222482885645185z" style="fill:rgb(0,0,0)"></path><path d="M381.80183009277243,169.0900704582479L390.76299458631973,170.345133578902L390.76299458631973,-57.13435791178332zM487.44637420930553,183.88620229071796L478.4852097157582,182.63113917006385L490.883533193132,180.6140734404412z" style="fill:rgb(238,238,238); fill-opacity: 0.4"></path><path d="M478.4852097157582,-44.848352320621466L478.4852097157582,182.63113917006385M478.4852097157582,182.63113917006385L487.44637420930553,183.88620229071796M369.07121334519786,51.690566454634656L377.6900320539089,52.89768206027898" style="fill:none;stroke:rgb(0,0,0);stroke-width:1;stroke-linecap:round"></path><path d="M409.4098339823452,169.20320878592514L405.97267499851887,172.47533763620189L405.97267499851887,-55.004153854483434zM414.9338394920662,173.730400756856L418.3709984758925,170.45827190657923L418.3709984758925,-57.021219584106085zM249.1750841356675,-346.11082990225026L249.1750841356675,412.1541417333675L240.21391964212023,-347.36589302290434zM240.21391964212023,-347.36589302290434L240.21391964212023,410.8990786127134L236.7767606582939,-344.0937641726276z" style="fill:rgb(238,238,238); fill-opacity: 0.4"></path><path d="M487.44637420930553,-43.593289199967366L487.44637420930553,183.88620229071796" style="fill:none;stroke:rgb(0,0,0);stroke-width:1;stroke-linecap:round"></path><path d="M376.996491917317,54.14371480895323L377.69003205390885,54.793344489368025L382.75992541197417,53.60775006359917zM378.1186634141399,50.95600766812764L377.2614006936778,51.772110179850365L382.75992541197417,53.60775006359917z" style="fill:rgb(0,0,0)"></path><path d="M442.54184338163896,173.8435390845332L433.58067888809165,172.58847596387915L433.58067888809165,-54.89101552680619z" style="fill:rgb(238,238,238); fill-opacity: 0.4"></path><path d="M377.2614006936778,51.772110179850365L376.996491917317,54.14371480895323L382.75992541197417,53.60775006359917z" style="fill:rgb(0,0,0)"></path><path d="M405.97267499851887,172.47533763620189L414.9338394920662,173.730400756856L414.9338394920662,-53.749090733829334zM245.73792515184118,-342.8387010519735L245.73792515184118,415.4262705836443L249.1750841356675,-346.11082990225026zM236.7767606582939,-344.0937641726276L236.7767606582939,414.1712074629902L245.73792515184118,-342.8387010519735z" style="fill:rgb(238,238,238); fill-opacity: 0.4"></path><path d="M393.24205825094435,55.07583363258865L401.8608769596554,56.28294923823297" style="fill:none;stroke:rgb(0,0,0);stroke-width:1;stroke-linecap:round"></path><path d="M433.58067888809165,172.58847596387915L430.14351990426536,175.8606048141559L430.14351990426536,-51.61888667652944zM439.1046843978126,177.11566793480995L442.54184338163896,173.8435390845332L442.54184338163896,-53.63595240615209z" style="fill:rgb(238,238,238); fill-opacity: 0.4"></path><path d="M297.5167739471604,-73.94755547387604L288.5556094536131,-75.20261859453014M288.5556094536131,-75.20261859453014L285.1184504697867,-71.93048974425338" style="fill:none;stroke:rgb(0,0,0);stroke-width:1;stroke-linecap:round"></path><path d="M321.68761885290684,-222.2152826230456L321.68761885290684,308.57019752188677L312.7264543593595,-223.4703457436997z" style="fill:rgb(238,238,238); fill-opacity: 0.4"></path><path d="M401.16733682306347,57.528981986907226L401.8608769596554,58.178611667322016L406.9307703177207,56.99301724155317z" style="fill:rgb(0,0,0)"></path><path d="M312.7264543593595,-223.4703457436997L312.7264543593595,307.31513440123274L309.2892953755332,-220.19821689342297z" style="fill:rgb(238,238,238); fill-opacity: 0.4"></path><path d="M402.28950831988647,54.34127484608164L401.4322455994243,55.15737735780436L406.9307703177207,56.99301724155317z" style="fill:rgb(0,0,0)"></path><path d="M466.7126882873854,177.22880626248724L457.7515237938381,175.9737431418331L457.7515237938381,-51.5057483488522z" style="fill:rgb(238,238,238); fill-opacity: 0.4"></path><path d="M401.4322455994243,55.15737735780436L401.16733682306347,57.528981986907226L406.9307703177207,56.99301724155317z" style="fill:rgb(0,0,0)"></path><path d="M430.14351990426536,175.8606048141559L439.1046843978126,177.11566793480995L439.1046843978126,-50.36382355587534z" style="fill:rgb(238,238,238); fill-opacity: 0.4"></path><path d="M297.5167739471604,-73.94755547387604L294.07961496333405,-70.67542662359928" style="fill:none;stroke:rgb(0,0,0);stroke-width:1;stroke-linecap:round"></path><path d="M294.07961496333405,-70.67542662359928L297.51677394716035,-73.94755547387604L288.5556094536131,-75.20261859453014z" style="fill:rgb(238,238,238); fill-opacity: 0.4"></path><path d="M417.4129031566908,58.46110081054264L426.03172186540183,59.668216416186965M273.34592904141397,-115.24607123361093L264.38476454786667,-116.501134354265M264.38476454786667,-116.501134354265L260.94760556404026,-113.22900550398825" style="fill:none;stroke:rgb(0,0,0);stroke-width:1;stroke-linecap:round"></path><path d="M457.7515237938381,175.9737431418331L454.31436481001174,179.24587199210987L454.31436481001174,-48.23361949857544zM285.11845046978675,-71.93048974425338L294.07961496333405,-70.67542662359928L288.5556094536131,-75.20261859453014zM463.2755293035591,180.50093511276398L466.7126882873854,177.22880626248724L466.7126882873854,-50.2506852281981zM394.2001535701461,-60.40648676206008L394.2001535701461,167.07300472862525L385.2389890765988,-61.661549882714176zM318.2504598690805,-218.94315377276885L318.2504598690805,311.84232637216354L321.68761885290684,-222.2152826230456zM385.2389890765988,-61.661549882714176L385.2389890765988,165.81794160797114L381.80183009277243,-58.389421032437426zM309.2892953755332,-220.19821689342297L309.2892953755332,310.58726325150946L318.2504598690805,-218.94315377276885z" style="fill:rgb(238,238,238); fill-opacity: 0.4"></path><path d="M285.1184504697867,-71.93048974425338L294.07961496333405,-70.67542662359928M273.34592904141397,-115.24607123361093L269.90877005758756,-111.97394238333418" style="fill:none;stroke:rgb(0,0,0);stroke-width:1;stroke-linecap:round"></path><path d="M345.8584637586532,-218.83001544509162L345.8584637586532,311.95546469984083L336.8972992651059,-220.0850785657457z" style="fill:rgb(238,238,238); fill-opacity: 0.4"></path><path d="M200.8333943241747,-201.22836993103465L191.8722298306274,-202.48343305168873M191.8722298306274,-202.48343305168873L188.43507084680104,-199.211304201412" style="fill:none;stroke:rgb(0,0,0);stroke-width:1;stroke-linecap:round"></path><path d="M425.3381817288099,60.91424916486121L426.03172186540183,61.563878845276L431.1016152234671,60.37828441950716z" style="fill:rgb(0,0,0)"></path><path d="M336.8972992651059,-220.0850785657457L336.8972992651059,310.7004015791867L333.46014028127956,-216.81294971546896z" style="fill:rgb(238,238,238); fill-opacity: 0.4"></path><path d="M426.4603532256329,57.72654202403563L425.60309050517077,58.54264453575835L431.1016152234671,60.37828441950716z" style="fill:rgb(0,0,0)"></path><path d="M490.883533193132,180.6140734404412L481.9223686995846,179.3590103197871L481.9223686995846,-48.120481170898216z" style="fill:rgb(238,238,238); fill-opacity: 0.4"></path><path d="M425.60309050517077,58.54264453575835L425.3381817288099,60.91424916486121L431.1016152234671,60.37828441950716z" style="fill:rgb(0,0,0)"></path><path d="M269.9087700575876,-111.97394238333416L273.34592904141397,-115.24607123361092L264.38476454786667,-116.50113435426502zM454.31436481001174,179.24587199210987L463.2755293035591,180.50093511276398L463.2755293035591,-46.97855637792134zM260.9476055640403,-113.22900550398826L269.9087700575876,-111.97394238333416L264.38476454786667,-116.50113435426502z" style="fill:rgb(238,238,238); fill-opacity: 0.4"></path><path d="M200.8333943241747,-201.22836993103465L197.39623534034834,-197.9562410807579" style="fill:none;stroke:rgb(0,0,0);stroke-width:1;stroke-linecap:round"></path><path d="M390.76299458631973,-57.13435791178332L390.76299458631973,170.345133578902L394.2001535701461,-60.40648676206008zM381.80183009277243,-58.389421032437426L381.80183009277243,169.0900704582479L390.76299458631973,-57.13435791178332z" style="fill:rgb(238,238,238); fill-opacity: 0.4"></path><path d="M260.94760556404026,-113.22900550398825L269.90877005758756,-111.97394238333418M441.5837480624372,61.84636798849663L450.2025667711482,63.05348359414096" style="fill:none;stroke:rgb(0,0,0);stroke-width:1;stroke-linecap:round"></path><path d="M197.3962353403483,-197.9562410807579L200.8333943241747,-201.22836993103465L191.8722298306274,-202.48343305168876zM481.9223686995846,179.3590103197871L478.4852097157582,182.63113917006385L478.4852097157582,-44.848352320621466zM487.44637420930553,183.88620229071796L490.883533193132,180.6140734404412L490.883533193132,-46.865418050244116zM418.3709984758925,-57.021219584106085L418.3709984758925,170.45827190657923L409.4098339823452,-58.276282704760185zM342.4213047748269,-215.55788659481485L342.4213047748269,315.22759355011755L345.8584637586532,-218.83001544509162zM409.4098339823452,-58.276282704760185L409.4098339823452,169.20320878592514L405.97267499851887,-55.004153854483434zM188.435070846801,-199.21130420141202L197.3962353403483,-197.9562410807579L191.8722298306274,-202.48343305168876zM333.46014028127956,-216.81294971546896L333.46014028127956,313.97253042946346L342.4213047748269,-215.55788659481485zM370.02930866439965,-215.44474826713764L370.02930866439965,315.3407318777948L361.06814417085235,-216.69981138779173z" style="fill:rgb(238,238,238); fill-opacity: 0.4"></path><path d="M188.43507084680104,-199.211304201412L197.39623534034834,-197.9562410807579M225.00423922992113,-197.8431027530807L216.04307473637382,-199.09816587373476M216.04307473637382,-199.09816587373476L212.60591575254747,-195.826037023458" style="fill:none;stroke:rgb(0,0,0);stroke-width:1;stroke-linecap:round"></path><path d="M449.50902663455634,64.2995163428152L450.2025667711482,64.94914602323L455.2724601292135,63.763551597461145z" style="fill:rgb(0,0,0)"></path><path d="M361.06814417085235,-216.69981138779173L361.06814417085235,314.0856687571407L357.63098518702606,-213.42768253751495z" style="fill:rgb(238,238,238); fill-opacity: 0.4"></path><path d="M450.63119813137934,61.111809201989615L449.77393541091715,61.92791171371234L455.2724601292135,63.763551597461145zM449.77393541091715,61.92791171371234L449.50902663455634,64.2995163428152L455.2724601292135,63.763551597461145z" style="fill:rgb(0,0,0)"></path><path d="M515.0543780988784,104.38151859665534L506.09321360533096,103.12645547600124M506.09321360533096,34.88260802879563L506.09321360533096,103.12645547600124M506.09321360533096,103.12645547600124L502.6560546215046,106.39858432627798" style="fill:none;stroke:rgb(0,0,0);stroke-width:1;stroke-linecap:round"></path><path d="M478.4852097157582,182.63113917006385L487.44637420930553,183.88620229071796L487.44637420930553,-43.593289199967366z" style="fill:rgb(238,238,238); fill-opacity: 0.4"></path><path d="M225.00423922992113,-197.8431027530807L221.56708024609478,-194.57097390280393" style="fill:none;stroke:rgb(0,0,0);stroke-width:1;stroke-linecap:round"></path><path d="M414.9338394920662,-53.749090733829334L414.9338394920662,173.730400756856L418.3709984758925,-57.021219584106085zM405.97267499851887,-55.004153854483434L405.97267499851887,172.47533763620189L414.9338394920662,-53.749090733829334z" style="fill:rgb(238,238,238); fill-opacity: 0.4"></path><path d="M515.0543780988784,36.13767114944973L515.0543780988784,104.38151859665534M515.0543780988784,104.38151859665534L511.61721911505197,107.65364744693208M465.7545929681836,65.23163516645062L474.3734116768946,66.43875077209493" style="fill:none;stroke:rgb(0,0,0);stroke-width:1;stroke-linecap:round"></path><path d="M502.6560546215046,106.39858432627798L506.0932136053311,103.12645547600124L515.0543780988784,104.38151859665534zM221.56708024609478,-194.5709739028039L225.00423922992115,-197.84310275308067L216.04307473637385,-199.09816587373476zM442.54184338163896,-53.63595240615209L442.54184338163896,173.8435390845332L433.58067888809165,-54.89101552680619zM366.5921496805733,-212.1726194168609L366.5921496805733,318.61286072807155L370.02930866439965,-215.44474826713764zM433.58067888809165,-54.89101552680619L433.58067888809165,172.58847596387915L430.14351990426536,-51.61888667652944zM212.60591575254747,-195.826037023458L221.56708024609478,-194.5709739028039L216.04307473637385,-199.09816587373476zM357.63098518702606,-213.42768253751495L357.63098518702606,317.35779760741747L366.5921496805733,-212.1726194168609z" style="fill:rgb(238,238,238); fill-opacity: 0.4"></path><path d="M212.60591575254747,-195.826037023458L221.56708024609478,-194.57097390280393" style="fill:none;stroke:rgb(0,0,0);stroke-width:1;stroke-linecap:round"></path><path d="M473.6798715403028,67.68478352076919L474.3734116768947,68.33441320118399L479.44330503495996,67.14881877541512z" style="fill:rgb(0,0,0)"></path><path d="M511.6172191150519,107.65364744693208L502.6560546215046,106.39858432627798L515.0543780988784,104.38151859665534z" style="fill:rgb(238,238,238); fill-opacity: 0.4"></path><path d="M474.8020430371258,64.4970763799436L473.9447803166636,65.31317889166634L479.44330503495996,67.14881877541512z" style="fill:rgb(0,0,0)"></path><path d="M502.6560546215046,38.1547368790724L502.6560546215046,106.39858432627798M502.6560546215046,106.39858432627798L511.61721911505197,107.65364744693208" style="fill:none;stroke:rgb(0,0,0);stroke-width:1;stroke-linecap:round"></path><path d="M473.9447803166636,65.31317889166634L473.6798715403028,67.68478352076919L479.44330503495996,67.14881877541512z" style="fill:rgb(0,0,0)"></path><path d="M515.0543780988784,104.38151859665534L506.0932136053311,103.12645547600124L506.0932136053311,34.88260802879563zM439.1046843978126,-50.36382355587534L439.1046843978126,177.11566793480995L442.54184338163896,-53.63595240615209z" style="fill:rgb(238,238,238); fill-opacity: 0.4"></path><path d="M511.61721911505197,39.4097999997265L511.61721911505197,107.65364744693208" style="fill:none;stroke:rgb(0,0,0);stroke-width:1;stroke-linecap:round"></path><path d="M430.14351990426536,-51.61888667652944L430.14351990426536,175.8606048141559L439.1046843978126,-50.36382355587534z" style="fill:rgb(238,238,238); fill-opacity: 0.4"></path><path d="M489.92543787393004,68.61690234440461L498.544256582641,69.82401795004894" style="fill:none;stroke:rgb(0,0,0);stroke-width:1;stroke-linecap:round"></path><path d="M466.7126882873854,-50.2506852281981L466.7126882873854,177.22880626248724L457.7515237938381,-51.5057483488522zM457.7515237938381,-51.5057483488522L457.7515237938381,175.9737431418331L454.31436481001174,-48.23361949857544zM506.0932136053311,103.12645547600124L502.6560546215046,106.39858432627798L502.6560546215046,38.1547368790724z" style="fill:rgb(238,238,238); fill-opacity: 0.4"></path><path d="M394.2001535701461,-60.406486762060084L385.2389890765988,-61.661549882714176M385.2389890765988,-61.661549882714176L381.8018300927724,-58.389421032437426" style="fill:none;stroke:rgb(0,0,0);stroke-width:1;stroke-linecap:round"></path><path d="M511.6172191150519,107.65364744693208L515.0543780988784,104.38151859665534L515.0543780988784,36.13767114944973z" style="fill:rgb(238,238,238); fill-opacity: 0.4"></path><path d="M497.85071644604926,71.07005069872318L498.54425658264114,71.71968037913798L503.6141499407064,70.53408595336913zM498.97288794287226,67.88234355789758L498.11562522241,68.69844606962032L503.6141499407064,70.53408595336913zM498.11562522241,68.69844606962032L497.85071644604926,71.07005069872318L503.6141499407064,70.53408595336913z" style="fill:rgb(0,0,0)"></path><path d="M394.2001535701461,-60.406486762060084L390.7629945863197,-57.134357911783326" style="fill:none;stroke:rgb(0,0,0);stroke-width:1;stroke-linecap:round"></path><path d="M502.6560546215046,106.39858432627798L511.6172191150519,107.65364744693208L511.6172191150519,39.4097999997265zM463.2755293035591,-46.97855637792134L463.2755293035591,180.50093511276398L466.7126882873854,-50.2506852281981zM390.76299458631973,-57.13435791178332L394.2001535701461,-60.40648676206008L385.2389890765988,-61.661549882714176zM515.0543780988784,36.13767114944973L515.0543780988784,104.38151859665534L506.0932136053311,34.88260802879563zM454.31436481001174,-48.23361949857544L454.31436481001174,179.24587199210987L463.2755293035591,-46.97855637792134zM506.0932136053311,34.88260802879563L506.0932136053311,103.12645547600124L502.6560546215046,38.1547368790724zM381.80183009277243,-58.389421032437426L390.76299458631973,-57.13435791178332L385.2389890765988,-61.661549882714176zM490.883533193132,-46.865418050244116L490.883533193132,180.6140734404412L481.9223686995846,-48.120481170898216zM481.9223686995846,-48.120481170898216L481.9223686995846,179.3590103197871L478.4852097157582,-44.848352320621466z" style="fill:rgb(238,238,238); fill-opacity: 0.4"></path><path d="M381.8018300927724,-58.389421032437426L390.7629945863197,-57.134357911783326M418.3709984758926,-57.021219584106085L409.4098339823453,-58.276282704760185M409.4098339823453,-58.276282704760185L405.97267499851887,-55.004153854483434" style="fill:none;stroke:rgb(0,0,0);stroke-width:1;stroke-linecap:round"></path><path d="M511.6172191150519,39.4097999997265L511.6172191150519,107.65364744693208L515.0543780988784,36.13767114944973z" style="fill:rgb(238,238,238); fill-opacity: 0.4"></path><path d="M418.3709984758926,-57.021219584106085L414.9338394920662,-53.749090733829334M515.0543780988784,36.13767114944973L506.09321360533096,34.88260802879563M506.09321360533096,34.88260802879563L502.6560546215046,38.1547368790724" style="fill:none;stroke:rgb(0,0,0);stroke-width:1;stroke-linecap:round"></path><path d="M502.6560546215046,38.1547368790724L502.6560546215046,106.39858432627798L511.6172191150519,39.4097999997265zM487.44637420930553,-43.593289199967366L487.44637420930553,183.88620229071796L490.883533193132,-46.865418050244116zM414.9338394920662,-53.749090733829334L418.3709984758925,-57.021219584106085L409.4098339823452,-58.276282704760185zM478.4852097157582,-44.848352320621466L478.4852097157582,182.63113917006385L487.44637420930553,-43.593289199967366z" style="fill:rgb(238,238,238); fill-opacity: 0.4"></path><path d="M515.0543780988784,36.13767114944973L511.61721911505197,39.4097999997265" style="fill:none;stroke:rgb(0,0,0);stroke-width:1;stroke-linecap:round"></path><path d="M405.97267499851887,-55.004153854483434L414.9338394920662,-53.749090733829334L409.4098339823452,-58.276282704760185zM511.6172191150519,39.4097999997265L515.0543780988784,36.13767114944973L506.0932136053311,34.88260802879563z" style="fill:rgb(238,238,238); fill-opacity: 0.4"></path><path d="M405.97267499851887,-55.004153854483434L414.9338394920662,-53.749090733829334M442.541843381639,-53.63595240615209L433.58067888809165,-54.89101552680619M433.58067888809165,-54.89101552680619L430.1435199042653,-51.61888667652944" style="fill:none;stroke:rgb(0,0,0);stroke-width:1;stroke-linecap:round"></path><path d="M502.6560546215046,38.1547368790724L511.6172191150519,39.4097999997265L506.0932136053311,34.88260802879563z" style="fill:rgb(238,238,238); fill-opacity: 0.4"></path><path d="M502.6560546215046,38.1547368790724L511.61721911505197,39.4097999997265M442.541843381639,-53.63595240615209L439.1046843978126,-50.36382355587534" style="fill:none;stroke:rgb(0,0,0);stroke-width:1;stroke-linecap:round"></path><path d="M439.1046843978126,-50.36382355587534L442.54184338163896,-53.63595240615209L433.58067888809165,-54.89101552680619zM430.14351990426536,-51.61888667652944L439.1046843978126,-50.36382355587534L433.58067888809165,-54.89101552680619z" style="fill:rgb(238,238,238); fill-opacity: 0.4"></path><path d="M430.1435199042653,-51.61888667652944L439.1046843978126,-50.36382355587534M466.7126882873854,-50.2506852281981L457.7515237938381,-51.5057483488522M457.7515237938381,-51.5057483488522L454.3143648100117,-48.23361949857544M466.7126882873854,-50.2506852281981L463.27552930355904,-46.97855637792134" style="fill:none;stroke:rgb(0,0,0);stroke-width:1;stroke-linecap:round"></path><path d="M463.2755293035591,-46.97855637792134L466.7126882873854,-50.2506852281981L457.7515237938381,-51.5057483488522zM454.31436481001174,-48.23361949857544L463.2755293035591,-46.97855637792134L457.7515237938381,-51.5057483488522z" style="fill:rgb(238,238,238); fill-opacity: 0.4"></path><path d="M321.68761885290684,-222.21528262304562L312.7264543593595,-223.4703457436997M312.7264543593595,-223.4703457436997L309.28929537553313,-220.19821689342297M454.3143648100117,-48.23361949857544L463.27552930355904,-46.97855637792134M490.8835331931319,-46.865418050244116L481.92236869958447,-48.120481170898216M481.92236869958447,-48.120481170898216L478.4852097157582,-44.848352320621466M321.68761885290684,-222.21528262304562L318.25045986908043,-218.94315377276888M490.8835331931319,-46.865418050244116L487.44637420930553,-43.593289199967366" style="fill:none;stroke:rgb(0,0,0);stroke-width:1;stroke-linecap:round"></path><path d="M318.2504598690805,-218.94315377276885L321.68761885290684,-222.2152826230456L312.7264543593595,-223.4703457436997zM487.44637420930553,-43.593289199967366L490.883533193132,-46.865418050244116L481.9223686995846,-48.120481170898216zM309.2892953755332,-220.19821689342297L318.2504598690805,-218.94315377276885L312.7264543593595,-223.4703457436997zM478.4852097157582,-44.848352320621466L487.44637420930553,-43.593289199967366L481.9223686995846,-48.120481170898216z" style="fill:rgb(238,238,238); fill-opacity: 0.4"></path><path d="M309.28929537553313,-220.19821689342297L318.25045986908043,-218.94315377276888M345.8584637586533,-218.83001544509165L336.89729926510597,-220.0850785657457M336.89729926510597,-220.0850785657457L333.46014028127956,-216.81294971546896M478.4852097157582,-44.848352320621466L487.44637420930553,-43.593289199967366M345.8584637586533,-218.83001544509165L342.4213047748269,-215.55788659481487" style="fill:none;stroke:rgb(0,0,0);stroke-width:1;stroke-linecap:round"></path><path d="M342.4213047748269,-215.55788659481485L345.8584637586532,-218.83001544509162L336.8972992651059,-220.0850785657457zM333.46014028127956,-216.81294971546896L342.4213047748269,-215.55788659481485L336.8972992651059,-220.0850785657457z" style="fill:rgb(238,238,238); fill-opacity: 0.4"></path><path d="M333.46014028127956,-216.81294971546896L342.4213047748269,-215.55788659481487M370.0293086643997,-215.44474826713764L361.06814417085235,-216.69981138779173M361.06814417085235,-216.69981138779173L357.630985187026,-213.42768253751495M249.17508413566756,-346.11082990225026L240.21391964212023,-347.36589302290434M240.21391964212023,-347.36589302290434L236.77676065829385,-344.0937641726276M370.0293086643997,-215.44474826713764L366.5921496805733,-212.1726194168609M249.17508413566756,-346.11082990225026L245.73792515184118,-342.8387010519735" style="fill:none;stroke:rgb(0,0,0);stroke-width:1;stroke-linecap:round"></path><path d="M366.5921496805733,-212.1726194168609L370.02930866439965,-215.44474826713764L361.06814417085235,-216.69981138779173zM245.73792515184118,-342.8387010519735L249.1750841356675,-346.11082990225026L240.21391964212023,-347.36589302290434zM357.63098518702606,-213.42768253751495L366.5921496805733,-212.1726194168609L361.06814417085235,-216.69981138779173zM236.7767606582939,-344.0937641726276L245.73792515184118,-342.8387010519735L240.21391964212023,-347.36589302290434z" style="fill:rgb(238,238,238); fill-opacity: 0.4"></path><path d="M357.630985187026,-213.42768253751495L366.5921496805733,-212.1726194168609M236.77676065829385,-344.0937641726276L245.73792515184118,-342.8387010519735" style="fill:none;stroke:rgb(0,0,0);stroke-width:1;stroke-linecap:round"></path></svg>